<svg width="145" height="145" viewBox="0 0 145 145" fill="none" xmlns="http://www.w3.org/2000/svg">
<g clip-path="url(#clip0_818_5796)">
<path d="M68.9939 66.4472C69.6696 66.5088 72.1847 66.2948 72.7478 68.8758C75.1315 66.4958 74.6685 63.3668 72.9668 62.1281C70.1013 60.0431 67.0513 61.9497 66.7729 64.1028C66.5945 65.4874 67.3735 66.298 68.9939 66.4472ZM127.689 63.0489C126.107 62.9906 123.77 65.6949 121.861 65.7014C120.604 65.7046 120.51 64.7092 121.264 63.036C124.06 56.8329 120.663 57.0308 119.938 57.6144C119.938 57.6144 122.365 53.1786 118.083 53.1948C112.808 53.2143 108.128 57.8025 105.679 64.6249C104.784 66.9465 102.813 71.9142 100.739 72.5303C98.7561 73.0879 98.7624 70.3934 97.4922 69.9038C105.923 64.0153 106.02 59.2585 104.697 57.6403C103.498 56.2234 99.5131 55.7759 94.5673 61.0711C95.778 56.3693 99.2065 53.4769 100.029 48.7493C100.458 45.9639 98.4808 43.0812 94.7269 47.7149C92.1836 50.844 90.8666 56.5671 88.4109 63.8758C86.9438 68.3182 84.0314 76.3111 81.4287 76.3209C80.2931 76.324 79.974 75.2702 80.3275 72.3714C81.0001 66.6871 85.411 60.1469 86.9563 55.4451C88.1044 52.3096 86.9657 50.4581 85.6581 50.1436C83.9063 49.8031 81.4193 51.5217 79.5705 56.2266C78.1065 59.4789 76.9146 63.9505 76.0387 69.025C75.2254 73.2598 71.997 81.5802 68.8593 81.1555C67.6894 80.9966 68.875 77.9486 70.314 74.9103C71.534 72.3325 72.4976 69.2164 69.9199 69.2098C65.9501 69.2033 63.0377 77.6859 62.5685 84.0089C62.3401 87.0829 62.24 90.64 64.533 90.6303C67.3578 90.6205 71.0273 87.5531 74.459 82.2028C74.7061 85.1828 78.3755 89.1451 85.4485 78.5095C85.5517 80.1308 85.9083 82.5336 87.0908 82.6081C87.0908 82.6081 88.1763 82.9195 89.2993 80.28C90.4224 77.6373 91.6456 74.304 91.9021 73.6716C92.5027 72.1898 93.6195 71.9109 93.7258 74.4369C93.8322 77.031 94.4985 78.9538 96.535 78.9473C100.533 78.9311 103.999 75.134 104.991 73.7008C105.563 75.9414 110.471 76.7326 115.818 70.027C116.055 71.8039 117.544 74.3882 124.276 68.9504C128.524 65.5717 128.903 63.0879 127.686 63.0425M93.8009 67.394C93.6476 67.4038 93.3786 67.2643 93.4913 66.9628C94.0293 65.5263 94.8958 64.2779 95.9907 63.3084C96.9605 62.4524 97.999 61.9368 98.7717 61.9303C99.4975 61.927 99.9291 62.3908 99.8947 63.1462C99.8666 63.7429 99.5193 64.4595 98.8499 65.1015C96.4724 67.3778 94.0073 67.3811 93.8041 67.394M116.7 60.1014C114.4 63.7916 115.223 64.226 113.541 66.8784C112.186 69.0088 110.308 69.5633 109.608 68.4576C108.908 67.3519 109.614 64.9037 111.188 62.9938C112.761 61.084 117.741 58.4251 116.697 60.1014M58.3547 84.5116C58.9929 72.099 65.4965 61.7908 65.7217 57.4459C65.8125 55.6949 64.9146 54.32 62.8907 54.4108C59.4777 54.5664 53.3777 59.6216 50.3276 65.9803C48.6384 60.63 44.5466 63.7916 42.6196 66.1424C42.9793 56.0904 40.0137 55.2279 38.2808 55.3089C32.8751 55.5554 27.2286 63.1041 24.1692 68.5743C21.3413 73.6328 14.14 88.7042 19.8679 89.6023C21.285 89.8261 22.7177 88.1497 23.7093 84.2748C27.4476 69.6476 31.9147 66.3013 33.7291 66.444C38.5279 66.8201 32.3308 85.3449 30.2129 91.8754C29.0337 95.3547 28.0201 100.99 31.8521 100.815C36.1316 100.617 37.9273 89.4435 38.9471 83.3702C40.1014 76.7164 41.7437 74.5601 43.386 74.706C45.313 74.946 44.5028 78.9376 43.2328 82.7606C42.0878 86.6613 38.1681 96.1913 42.7823 96.6063C47.434 96.7749 47.2306 88.0297 48.5101 82.5173C50.4559 74.2164 52.63 68.6068 54.9637 69.0736C57.8385 69.706 51.1222 80.5946 50.678 89.236C50.3339 95.9351 53.2525 100.792 57.485 98.9053C61.9459 96.7101 58.0106 91.2171 58.3578 84.518" fill="#3B3B3B"/>
</g>
<defs>
<clipPath id="clip0_818_5796">
<rect width="112" height="56" fill="white" transform="translate(17 45)"/>
</clipPath>
</defs>
</svg>
