<svg width="145" height="145" viewBox="0 0 145 145" fill="none" xmlns="http://www.w3.org/2000/svg">
<g clip-path="url(#clip0_818_5816)">
<g clip-path="url(#clip1_818_5816)">
<path d="M80.7733 48.4876C80.7733 50.9135 78.8898 52.2997 76.8206 52.2997H74.8309V55.8452H71.9658V44.6755H76.8206C78.8898 44.6755 80.7733 46.0618 80.7733 48.4876ZM74.8574 47.1547V49.8205H76.5553C77.3246 49.8205 77.8817 49.3673 77.8817 48.4876C77.8817 47.6079 77.3246 47.1547 76.5553 47.1547H74.8574Z" fill="#3B3B3B"/>
<path d="M89.8728 51.9799C89.8728 54.2992 88.0954 55.9786 85.7078 55.9786C83.3202 55.9786 81.5693 54.2992 81.5693 51.9799C81.5693 49.6607 83.3202 47.9546 85.7078 47.9546C88.0954 47.9546 89.8728 49.6607 89.8728 51.9799ZM84.4079 51.9799C84.4079 52.8863 84.965 53.5794 85.7343 53.5794C86.5037 53.5794 87.0873 52.8863 87.0873 51.9799C87.0873 51.0736 86.5037 50.3538 85.7343 50.3538C84.965 50.3538 84.4079 51.0469 84.4079 51.9799Z" fill="#3B3B3B"/>
<path d="M96.3189 50.7004H96.0802C95.2313 50.7004 94.6476 51.0736 94.2762 51.5268V55.8454H91.4907V48.1145H93.9579L94.1171 49.1009C94.4885 48.4611 95.2578 47.9546 96.2924 47.9546V50.727L96.3189 50.7004Z" fill="#3B3B3B"/>
<path d="M101.757 48.0879H103.8V50.4338H101.757V52.6997C101.757 53.1796 102.102 53.4995 102.606 53.4995C103.11 53.4995 103.296 53.3928 103.508 53.2862L104.171 55.4721C103.72 55.7387 103.137 55.9786 102.341 55.9786C100.245 55.9786 98.9718 54.8057 98.9718 52.7264V50.4338H97.6719V48.0879H98.9718V47.3148L101.757 45.582V48.0879Z" fill="#3B3B3B"/>
<path d="M113.271 51.9799C113.271 54.2992 111.493 55.9786 109.106 55.9786C106.718 55.9786 104.967 54.2992 104.967 51.9799C104.967 49.6607 106.718 47.9546 109.106 47.9546C111.493 47.9546 113.271 49.6607 113.271 51.9799ZM107.779 51.9799C107.779 52.8863 108.336 53.5794 109.106 53.5794C109.875 53.5794 110.459 52.8863 110.459 51.9799C110.459 51.0736 109.875 50.3538 109.106 50.3538C108.336 50.3538 107.779 51.0469 107.779 51.9799Z" fill="#3B3B3B"/>
<path d="M80.11 62.2433C80.11 63.2296 79.659 63.896 79.208 64.2693C80.2426 64.7224 80.9854 65.4955 80.9854 66.9617C80.9854 69.121 79.261 70.294 77.2714 70.294H71.9922V59.1243H76.5551C78.7039 59.1243 80.11 60.2706 80.11 62.2166M74.8573 61.7901V63.5495H76.1572C76.7673 63.5495 77.1918 63.2296 77.1918 62.6698C77.1918 62.11 76.7408 61.7901 76.1572 61.7901H74.8573ZM74.8573 65.7355V67.7081H76.9C77.5897 67.7081 78.0673 67.3616 78.0673 66.7218C78.0673 66.082 77.5897 65.7355 76.9 65.7355H74.8573Z" fill="#3B3B3B"/>
<path d="M89.9257 70.3205H87.4586L87.3259 69.5474C86.9545 70.1072 86.2913 70.4804 85.2567 70.4804C83.3997 70.4804 82.4712 69.1209 82.4712 66.9616V62.563H85.2567V66.8016C85.2567 67.4147 85.522 67.8413 86.1056 67.8413C86.6892 67.8413 87.0076 67.4947 87.1668 67.1748V62.563H89.9523V70.2938L89.9257 70.3205Z" fill="#3B3B3B"/>
<path d="M98.0433 63.2563L97.0617 65.1757C96.6638 64.8292 96.0271 64.5359 95.2843 64.5359C94.5415 64.5359 94.568 64.6959 94.568 64.9358C94.568 65.1757 94.7272 65.309 95.7884 65.5489C97.274 65.9221 98.0433 66.6419 98.0433 67.7882C98.0433 68.9345 96.7169 70.4806 94.4885 70.4806C92.2601 70.4806 92.1274 70.1341 91.4907 69.5743L92.4988 67.6549C92.9763 68.0548 93.6661 68.4013 94.4885 68.4013C95.3109 68.4013 95.2578 68.268 95.2578 68.0015C95.2578 67.7349 95.1251 67.5483 94.1966 67.335C92.5519 66.9351 91.756 66.322 91.756 65.1224C91.756 63.9228 93.0294 62.4299 95.2578 62.4299C97.4862 62.4299 97.4066 62.7232 98.0168 63.2563" fill="#3B3B3B"/>
<path d="M102.712 60.1639C102.712 61.0703 102.076 61.7367 101.147 61.7367C100.219 61.7367 99.582 61.0969 99.582 60.1639C99.582 59.2309 100.219 58.5911 101.147 58.5911C102.076 58.5911 102.712 59.2309 102.712 60.1639ZM102.553 70.3206H99.7677V62.5898H102.553V70.3206Z" fill="#3B3B3B"/>
<path d="M112.236 65.9221V70.3207H109.451V66.0821C109.451 65.4689 109.132 65.0424 108.575 65.0424C108.018 65.0424 107.673 65.389 107.514 65.7089V70.3207H104.729V62.5899H107.196L107.328 63.363C107.673 62.8031 108.363 62.4299 109.318 62.4299C111.228 62.4299 112.21 63.7895 112.21 65.9488" fill="#3B3B3B"/>
<path d="M121.415 66.322V67.1217H116.534C116.56 67.8148 117.011 68.2147 117.86 68.2147C118.709 68.2147 118.974 67.9481 119.266 67.5749L121.15 69.0944C120.301 70.0274 119.266 70.4806 117.807 70.4806C115.366 70.4806 113.722 68.8011 113.722 66.4819C113.722 64.1627 115.366 62.4565 117.754 62.4565C120.142 62.4565 121.415 64.2426 121.415 66.3486M116.534 65.5489H118.683C118.683 64.9357 118.311 64.4026 117.648 64.4026C116.985 64.4026 116.56 64.9357 116.534 65.5489Z" fill="#3B3B3B"/>
<path d="M129.108 63.2563L128.127 65.1757C127.729 64.8292 127.092 64.5359 126.349 64.5359C125.606 64.5359 125.633 64.6959 125.633 64.9358C125.633 65.1757 125.792 65.309 126.853 65.5489C128.339 65.9221 129.108 66.6419 129.108 67.7882C129.108 68.9345 127.782 70.4806 125.553 70.4806C123.325 70.4806 123.192 70.1341 122.556 69.5743L123.564 67.6549C124.041 68.0548 124.731 68.4013 125.553 68.4013C126.376 68.4013 126.323 68.268 126.323 68.0015C126.323 67.7349 126.19 67.5483 125.262 67.335C123.617 66.9351 122.821 66.322 122.821 65.1224C122.821 63.9228 124.094 62.4299 126.323 62.4299C128.551 62.4299 128.472 62.7232 129.082 63.2563" fill="#3B3B3B"/>
<path d="M136.775 63.2563L135.794 65.1757C135.396 64.8292 134.759 64.5359 134.016 64.5359C133.273 64.5359 133.3 64.6959 133.3 64.9358C133.3 65.1757 133.459 65.309 134.52 65.5489C136.006 65.9221 136.775 66.6419 136.775 67.7882C136.775 68.9345 135.449 70.4806 133.22 70.4806C130.992 70.4806 130.859 70.1341 130.223 69.5743L131.231 67.6549C131.708 68.0548 132.398 68.4013 133.22 68.4013C134.043 68.4013 133.99 68.268 133.99 68.0015C133.99 67.7349 133.857 67.5483 132.929 67.335C131.284 66.9351 130.488 66.322 130.488 65.1224C130.488 63.9228 131.761 62.4299 133.99 62.4299C136.218 62.4299 136.139 62.7232 136.749 63.2563" fill="#3B3B3B"/>
<path d="M79.6854 74.6391L78.1998 77.0116C77.5632 76.5051 76.7673 76.0786 75.5735 76.0786C74.3797 76.0786 74.3532 76.3452 74.3532 76.8783C74.3532 77.4115 74.6185 77.5181 76.1306 77.7847C79.1283 78.3978 79.9773 79.5708 79.9773 81.2502C79.9773 82.9297 78.3325 84.9824 75.6 84.9824C72.8676 84.9824 72.2574 84.4492 71.1167 83.4362L72.6554 81.037C73.3716 81.8367 74.592 82.3432 75.6796 82.3432C76.7673 82.3432 77.1122 82.05 77.1122 81.5168C77.1122 80.9837 76.7938 80.8504 75.3082 80.5838C72.3105 79.944 71.4881 78.6378 71.4881 77.0116C71.4881 75.3855 73.0798 73.4395 75.6 73.4395C78.1203 73.4395 78.7304 73.8926 79.6854 74.6124" fill="#3B3B3B"/>
<path d="M88.3339 78.771L86.3974 80.2105C86.1321 79.6507 85.7607 79.3575 85.124 79.3575C84.4873 79.3575 83.8506 80.1039 83.8506 80.9836C83.8506 81.8633 84.3016 82.6098 85.124 82.6098C85.9464 82.6098 86.1586 82.2899 86.4504 81.73L88.3605 83.1696C87.6707 84.3159 86.5831 85.009 85.124 85.009C82.7895 85.009 81.0386 83.3029 81.0386 80.9836C81.0386 78.6644 82.7895 76.9583 85.124 76.9583C87.4585 76.9583 87.6707 77.6514 88.3605 78.7977" fill="#3B3B3B"/>
<path d="M92.4457 77.6248C92.8171 77.1983 93.4537 76.905 94.2761 76.905C96.1862 76.905 97.1678 78.2646 97.1678 80.4239V84.8225H94.3823V80.5838C94.3823 79.9707 94.0639 79.5442 93.5068 79.5442C92.9497 79.5442 92.6048 79.8907 92.4457 80.2106V84.8225H89.6602V73.2795H92.4457V77.6248Z" fill="#3B3B3B"/>
<path d="M106.957 80.957C106.957 83.2762 105.179 84.9557 102.792 84.9557C100.404 84.9557 98.6533 83.2762 98.6533 80.957C98.6533 78.6377 100.404 76.9316 102.792 76.9316C105.179 76.9316 106.957 78.6377 106.957 80.957ZM101.465 80.957C101.465 81.8634 102.022 82.5565 102.792 82.5565C103.561 82.5565 104.145 81.8634 104.145 80.957C104.145 80.0506 103.561 79.3309 102.792 79.3309C102.022 79.3309 101.465 80.024 101.465 80.957Z" fill="#3B3B3B"/>
<path d="M116.534 80.957C116.534 83.2762 114.757 84.9557 112.369 84.9557C109.981 84.9557 108.23 83.2762 108.23 80.957C108.23 78.6377 109.981 76.9316 112.369 76.9316C114.757 76.9316 116.534 78.6377 116.534 80.957ZM111.069 80.957C111.069 81.8634 111.626 82.5565 112.395 82.5565C113.165 82.5565 113.748 81.8634 113.748 80.957C113.748 80.0506 113.165 79.3309 112.395 79.3309C111.626 79.3309 111.069 80.024 111.069 80.957Z" fill="#3B3B3B"/>
<path d="M120.964 73.2795H118.179V84.8225H120.964V73.2795Z" fill="#3B3B3B"/>
<path d="M76.1839 97.3251C76.1839 98.6047 75.4411 99.4311 74.0351 99.4311C72.629 99.4311 71.8862 98.6047 71.8862 97.3251V93.7529H73.0535V97.2451C73.0535 97.9116 73.3718 98.3648 74.0351 98.3648C74.6983 98.3648 75.0166 97.9116 75.0166 97.2451V93.7529H76.1573V97.3251H76.1839Z" fill="#3B3B3B"/>
<path d="M80.9588 97.1116V99.3242H79.8446V97.1649C79.8446 96.7384 79.6058 96.4452 79.2079 96.4452C78.81 96.4452 78.6243 96.6584 78.4916 96.8984V99.3242H77.3774V95.4855H78.3855L78.4386 95.912C78.6243 95.6188 78.9957 95.4055 79.5263 95.4055C80.4548 95.4055 80.9588 96.072 80.9588 97.1116Z" fill="#3B3B3B"/>
<path d="M83.267 94.2594C83.267 94.6326 83.0017 94.8992 82.6303 94.8992C82.2589 94.8992 81.9937 94.6326 81.9937 94.2594C81.9937 93.8862 82.2589 93.6196 82.6303 93.6196C83.0017 93.6196 83.267 93.8862 83.267 94.2594ZM83.1874 99.3244H82.0732V95.4857H83.1874V99.3244Z" fill="#3B3B3B"/>
<path d="M86.079 99.4043H86.0525L83.9302 95.4856H85.177L86.0525 97.3517L86.9279 95.4856H88.1748L86.079 99.4043Z" fill="#3B3B3B"/>
<path d="M92.0747 97.3516V97.6982H89.4749C89.4749 98.2047 89.7932 98.4712 90.3503 98.4712C90.9074 98.4712 91.0135 98.3113 91.1992 98.0714L91.9686 98.6845C91.5706 99.1377 91.0666 99.3776 90.3503 99.3776C89.1565 99.3776 88.3872 98.5512 88.3872 97.3783C88.3872 96.2053 89.1831 95.3789 90.3238 95.3789C91.4645 95.3789 92.1012 96.2853 92.1012 97.3249M89.5014 97.005H90.987C90.987 96.5785 90.7217 96.2586 90.2707 96.2586C89.8198 96.2586 89.5279 96.5785 89.5014 97.005Z" fill="#3B3B3B"/>
<path d="M95.1786 96.4985H95.099C94.648 96.4985 94.3562 96.7384 94.144 97.005V99.3242H93.0298V95.4855H94.0113L94.0909 95.992C94.2766 95.6721 94.648 95.4055 95.2051 95.4055V96.5252L95.1786 96.4985Z" fill="#3B3B3B"/>
<path d="M98.7599 95.8056L98.3355 96.6053C98.1233 96.4187 97.8049 96.2854 97.4335 96.2854C97.0621 96.2854 96.9295 96.3921 96.9295 96.5787C96.9295 96.7653 97.0621 96.8452 97.6192 96.9785C98.4151 97.1651 98.813 97.5384 98.813 98.1248C98.813 98.7113 98.1763 99.4044 97.1417 99.4044C96.1071 99.4044 96.001 99.2178 95.6826 98.9512L96.1071 98.1515C96.3724 98.3648 96.7172 98.5514 97.1682 98.5514C97.6192 98.5514 97.6988 98.4447 97.6988 98.2315C97.6988 98.0182 97.5661 97.9116 97.0621 97.8049C96.2132 97.5917 95.8418 97.2984 95.8418 96.6853C95.8418 96.0722 96.4254 95.4324 97.46 95.4324C98.4946 95.4324 98.4946 95.5923 98.7865 95.8589" fill="#3B3B3B"/>
<path d="M100.935 94.2594C100.935 94.6326 100.67 94.8992 100.298 94.8992C99.9269 94.8992 99.6616 94.6326 99.6616 94.2594C99.6616 93.8862 99.9269 93.6196 100.298 93.6196C100.67 93.6196 100.935 93.8862 100.935 94.2594ZM100.829 99.3244H99.7147V95.4857H100.829V99.3244Z" fill="#3B3B3B"/>
<path d="M103.429 95.4856H104.516V96.4186H103.429V97.8848C103.429 98.2314 103.641 98.418 103.959 98.418C104.278 98.418 104.357 98.3647 104.463 98.3113L104.755 99.1911C104.543 99.3243 104.278 99.431 103.88 99.431C102.951 99.431 102.341 98.8978 102.341 97.9115V96.4453H101.651V95.5123H102.341V94.2327H103.455V95.5123L103.429 95.4856Z" fill="#3B3B3B"/>
<path d="M106.268 101.057H104.994L106.533 98.3647L105.021 95.4856H106.241L107.116 97.3517L107.992 95.4856H109.239L106.268 101.057Z" fill="#3B3B3B"/>
<path d="M115.632 97.4049C115.632 98.5512 114.783 99.4042 113.616 99.4042C112.449 99.4042 111.6 98.5778 111.6 97.4049C111.6 96.2319 112.449 95.4055 113.616 95.4055C114.783 95.4055 115.632 96.2586 115.632 97.4049ZM112.714 97.4049C112.714 97.9913 113.085 98.4179 113.616 98.4179C114.146 98.4179 114.518 97.9913 114.518 97.4049C114.518 96.8184 114.146 96.3652 113.616 96.3652C113.085 96.3652 112.714 96.8184 112.714 97.4049Z" fill="#3B3B3B"/>
<path d="M119.24 93.8061L118.842 94.6858C118.762 94.6059 118.603 94.5259 118.418 94.5259C118.126 94.5259 117.94 94.7392 117.94 95.0857V95.4856H118.789V96.4186H117.94V99.3243H116.826V96.4186H116.163V95.4856H116.826V95.139C116.826 94.206 117.409 93.5396 118.364 93.5396C119.32 93.5396 119.028 93.6195 119.24 93.7795" fill="#3B3B3B"/>
<path d="M125.766 95.5923C125.766 96.7653 124.891 97.4317 123.829 97.4317H122.768V99.3244H121.601V93.7529H123.829C124.891 93.7529 125.766 94.4194 125.766 95.5923ZM122.768 94.7393V96.4187H123.723C124.254 96.4187 124.625 96.1255 124.625 95.5657C124.625 95.0059 124.254 94.7126 123.723 94.7126H122.768V94.7393Z" fill="#3B3B3B"/>
<path d="M130.249 97.4049C130.249 98.5512 129.4 99.4042 128.233 99.4042C127.066 99.4042 126.217 98.5778 126.217 97.4049C126.217 96.2319 127.066 95.4055 128.233 95.4055C129.4 95.4055 130.249 96.2586 130.249 97.4049ZM127.331 97.4049C127.331 97.9913 127.702 98.4179 128.233 98.4179C128.764 98.4179 129.135 97.9913 129.135 97.4049C129.135 96.8184 128.764 96.3652 128.233 96.3652C127.702 96.3652 127.331 96.8184 127.331 97.4049Z" fill="#3B3B3B"/>
<path d="M133.327 96.4985H133.247C132.796 96.4985 132.504 96.7384 132.292 97.005V99.3242H131.178V95.4855H132.159L132.239 95.992C132.425 95.6721 132.796 95.4055 133.353 95.4055V96.5252L133.327 96.4985Z" fill="#3B3B3B"/>
<path d="M135.634 95.4856H136.722V96.4186H135.634V97.8848C135.634 98.2314 135.847 98.418 136.165 98.418C136.483 98.418 136.563 98.3647 136.669 98.3113L136.961 99.1911C136.749 99.3243 136.483 99.431 136.085 99.431C135.157 99.431 134.547 98.8978 134.547 97.9115V96.4453H133.857V95.5123H134.547V94.2327H135.661V95.5123L135.634 95.4856Z" fill="#3B3B3B"/>
<path d="M141.391 97.4049C141.391 98.5512 140.542 99.4042 139.375 99.4042C138.208 99.4042 137.359 98.5778 137.359 97.4049C137.359 96.2319 138.208 95.4055 139.375 95.4055C140.542 95.4055 141.391 96.2586 141.391 97.4049ZM138.473 97.4049C138.473 97.9913 138.844 98.4179 139.375 98.4179C139.906 98.4179 140.277 97.9913 140.277 97.4049C140.277 96.8184 139.906 96.3652 139.375 96.3652C138.844 96.3652 138.473 96.8184 138.473 97.4049Z" fill="#3B3B3B"/>
<path d="M4.60938 44.6755L58.9931 99.3244V44.6755H4.60938Z" fill="#3B3B3B"/>
<path d="M4.60938 72L31.8012 99.3244V72H4.60938Z" fill="#3B3B3B"/>
<path d="M4.60938 85.6489L18.192 99.3245V85.6489H4.60938Z" fill="#3B3B3B"/>
</g>
</g>
<defs>
<clipPath id="clip0_818_5816">
<rect width="145" height="145" fill="white"/>
</clipPath>
<clipPath id="clip1_818_5816">
<rect width="164" height="82" fill="white" transform="translate(-9 31)"/>
</clipPath>
</defs>
</svg>
