<svg width="145" height="145" viewBox="0 0 145 145" fill="none" xmlns="http://www.w3.org/2000/svg">
<g clip-path="url(#clip0_818_5867)">
<path d="M21.8513 74.0581L13.7139 86.5072L2.67301 69.3566C2.17886 68.5877 2.00921 67.6544 2.20114 66.7608C2.39308 65.8672 2.93099 65.086 3.69729 64.5878C4.07593 64.3421 4.49942 64.1737 4.94339 64.0924C5.38737 64.011 5.84305 64.0182 6.28422 64.1136C6.72539 64.209 7.14333 64.3907 7.514 64.6483C7.88466 64.9059 8.20073 65.2342 8.44401 65.6144L13.7197 73.8353L18.9629 65.6295L18.9861 65.597C19.036 65.5228 19.087 65.4555 19.1322 65.3952L19.1995 65.3059C19.239 65.2578 19.2804 65.2113 19.3236 65.1667L19.377 65.1063L19.4304 65.0483C19.4512 65.0275 19.4744 65.0066 19.5046 64.9799L19.58 64.9103C19.6206 64.8732 19.6554 64.8407 19.6902 64.8129L19.7842 64.7433C19.8526 64.6911 19.9118 64.6458 19.9848 64.5983L20.015 64.5785L20.073 64.5437C20.1368 64.5066 20.1983 64.4683 20.2644 64.4335L20.3398 64.3964L20.4048 64.3663C20.457 64.3419 20.5092 64.3175 20.5602 64.2967C20.6136 64.2735 20.6658 64.2561 20.7365 64.2305C20.7922 64.212 20.8293 64.1981 20.8676 64.1876C21.6722 63.9454 22.5376 64.0065 23.3001 64.3593L23.3593 64.3883C23.4579 64.4324 23.5518 64.4846 23.6423 64.5437L23.7003 64.5762L23.7293 64.5948C23.8047 64.6447 23.8627 64.6876 23.9358 64.7433L24.0251 64.8105C24.068 64.8453 24.1063 64.8801 24.1527 64.9231L24.2304 64.9938L24.2861 65.046L24.3499 65.1156L24.4102 65.1829C24.4543 65.2293 24.4891 65.2676 24.5193 65.3059L24.5912 65.401C24.6434 65.4706 24.6875 65.5297 24.7374 65.604L24.7513 65.6237L30.0061 73.8365L35.2748 65.6144C35.5182 65.2343 35.8343 64.9061 36.205 64.6486C36.5757 64.3912 36.9936 64.2095 37.4347 64.1141C37.8758 64.0187 38.3315 64.0114 38.7754 64.0927C39.2193 64.174 39.6428 64.3423 40.0215 64.5878C40.7873 65.0862 41.3247 65.8672 41.5166 66.7604C41.7085 67.6537 41.5393 68.5865 41.0458 69.3554L30.0061 86.5083L21.8501 74.0581H21.8513ZM53.3337 63.7932C46.7472 63.7932 41.3892 68.9587 41.3892 75.3074C41.3892 81.6584 46.7484 86.8262 53.3337 86.8262C59.9202 86.8262 65.2782 81.6584 65.2782 75.3074C65.2782 68.9587 59.9202 63.7932 53.3337 63.7932ZM53.3337 80.9693C50.4105 80.9693 48.0302 78.4289 48.0302 75.3085C48.0302 72.1881 50.4093 69.6477 53.3337 69.6477C56.2604 69.6477 58.6407 72.1881 58.6407 75.3085C58.6407 78.4289 56.2604 80.9693 53.3337 80.9693ZM67.2386 72.245V86.3575H74.1603V71.7995C74.1603 71.2079 74.5965 70.2695 75.7681 70.2695L77.9802 70.266L80.2619 70.2625V64.2572H75.3737C71.4448 64.2572 67.2386 67.4681 67.2386 72.245ZM92.0672 70.3008C92.8701 70.2996 93.6399 69.9803 94.208 69.4129C94.776 68.8455 95.0962 68.0761 95.0983 67.2732C95.0953 66.4717 94.7744 65.704 94.2062 65.1386C93.638 64.5733 92.8688 64.2563 92.0672 64.2572H88.8448L88.8436 61.2621C88.8405 60.4032 88.4968 59.5807 87.8878 58.975C87.2789 58.3693 86.4545 58.03 85.5956 58.0315C84.7371 58.0306 83.9133 58.3702 83.3049 58.9758C82.6964 59.5814 82.353 60.4036 82.3499 61.2621V78.9579L82.3604 79.43H82.3685C82.6469 83.9784 86.4018 86.3552 90.0314 86.3552H94.9185V80.358L94.4476 80.3511C94.226 80.3487 90.6439 80.3429 90.427 80.3429C89.2229 80.3429 88.8181 79.1481 88.8181 78.6041V70.3043C89.7229 70.3008 90.8806 70.3008 92.0672 70.3008ZM140.764 67.9159C139.27 66.0367 136.52 63.7979 131.907 63.7979C127.298 63.7979 124.55 66.0367 123.055 67.9159C121.107 70.3646 120.413 73.2519 120.413 75.1357V86.3564H127.343V75.3631C127.343 72.8528 128.911 70.3078 131.906 70.302C134.908 70.3078 136.479 72.8528 136.479 75.3631V86.3564H143.407V75.1357C143.407 73.2507 142.712 70.3646 140.764 67.9159ZM107.116 63.7932C100.702 63.7932 95.4846 68.9587 95.4846 75.3074C95.4846 81.6584 100.702 86.8262 107.116 86.8262C111.603 86.8262 115.737 84.2197 117.649 80.1875L117.971 79.5101H111.377L111.235 79.6667C110.334 80.6654 108.717 81.3115 107.115 81.3115C104.66 81.3115 102.808 79.8476 102.107 77.3791H118.563L118.623 76.9731C118.704 76.4233 118.746 75.863 118.746 75.3074C118.746 68.9587 113.53 63.7932 107.116 63.7932ZM102.285 72.5129C102.865 70.5827 104.765 69.3067 107.116 69.3067C109.446 69.3067 111.385 70.6105 111.946 72.5129H102.285Z" fill="#3B3B3B"/>
</g>
<defs>
<clipPath id="clip0_818_5867">
<rect width="141.52" height="29" fill="white" transform="translate(2 58)"/>
</clipPath>
</defs>
</svg>
