<svg width="145" height="145" viewBox="0 0 145 145" fill="none" xmlns="http://www.w3.org/2000/svg">
<mask id="mask0_818_5784" style="mask-type:luminance" maskUnits="userSpaceOnUse" x="0" y="0" width="145" height="145">
<path d="M144.812 0.625H0.8125V144.625H144.812V0.625Z" fill="white"/>
</mask>
<g mask="url(#mask0_818_5784)">
<path d="M89.0059 91.4075V85.0403L89.2012 85.1409C89.2931 85.191 89.3962 85.2167 89.501 85.2161C89.5848 85.222 89.6685 85.2004 89.7383 85.1536L89.9541 84.9866V94.4299L83.8574 87.2053V94.1233L83.6318 93.9124C83.5688 93.8465 83.4818 93.8081 83.3906 93.8059C83.2989 93.8083 83.2113 93.8466 83.1475 93.9124L82.9229 94.1233V84.4543L89.0059 91.4075ZM41.8799 60.9202C45.8077 59.2218 49.3682 63.3025 50.7373 67.2092C51.2451 68.6556 51.6685 73.0152 46.6328 72.8401C45.5333 72.8024 45.5824 73.6641 46.3691 73.9612C48.4593 74.7375 50.6097 75.8242 51.6338 77.8196C54.2386 82.8948 52.2579 87.6279 49.3486 91.386C47.1785 94.1885 43.4753 95.104 40.0791 93.6018C35.6337 91.64 38.1969 85.4673 38.1787 82.3088C38.1787 81.1878 37.3014 80.6149 36.7754 81.9895C35.4132 85.5361 32.2314 89.7667 28.3906 90.5374C22.1007 91.7925 16.4899 85.4083 16.3496 80.4241C16.2753 77.693 17.6446 75.2395 19.2803 73.9602C22.0858 71.7729 25.4526 71.4016 28.9707 71.4016C33.3529 71.4016 36.6271 71.8499 38.6611 72.6038C40.1831 68.7589 39.0749 62.1356 41.8799 60.9202ZM110.562 84.8215C111.148 84.8151 111.731 84.919 112.278 85.1282L112.431 85.1887L111.81 86.134L111.693 86.0022C111.463 85.7389 111.073 85.5979 110.518 85.5979C109.466 85.5979 108.65 86.018 108.06 86.8391C107.532 87.5677 107.272 88.4646 107.271 89.5139C107.25 90.4543 107.516 91.3793 108.033 92.1653C108.287 92.5638 108.641 92.8895 109.059 93.1106C109.477 93.3317 109.945 93.4412 110.418 93.427C110.902 93.4116 111.37 93.2485 111.759 92.9602C112.161 92.6841 112.506 92.3327 112.774 91.926L113.002 91.5745L113.065 93.0081C112.157 93.8095 111.228 94.1955 110.25 94.1956C108.912 94.197 107.823 93.7321 106.982 92.8157L106.984 92.8127C106.203 91.9398 105.799 90.8625 105.799 89.5735C105.799 88.22 106.23 87.0858 107.099 86.1848C107.967 85.2838 109.142 84.8215 110.562 84.8215ZM117.322 85.0256C117.414 85.0492 117.509 85.0621 117.604 85.0627C117.703 85.0603 117.801 85.0473 117.897 85.0247L118.007 85.0022L121.795 94.1106L121.515 94.0247C121.31 93.9591 121.096 93.9254 120.882 93.925C120.723 93.9192 120.565 93.9535 120.422 94.0237L120.281 94.094L119.439 91.801H115.614L114.772 94.0735L114.648 94.0305C114.513 93.9838 114.371 93.9598 114.229 93.9592C114.107 93.9571 113.985 93.9802 113.873 94.0276L113.58 94.1506L117.21 84.9993L117.322 85.0256ZM131.228 85.0256C131.319 85.0491 131.413 85.062 131.508 85.0627C131.607 85.0603 131.706 85.0473 131.803 85.0247L131.912 85.0022L135.699 94.1106L135.419 94.0247C135.215 93.9591 135.001 93.9254 134.786 93.925C134.629 93.9205 134.474 93.9547 134.333 94.0237L134.192 94.094L133.351 91.801H129.525L128.684 94.0735L128.559 94.0305C128.423 93.9838 128.281 93.9597 128.138 93.9592C128.016 93.9571 127.895 93.9802 127.783 94.0276L127.49 94.1506L131.115 84.9993L131.228 85.0256ZM124.644 84.5422C125.367 84.5422 125.939 84.7342 126.336 85.1223L126.397 85.1838L125.935 86.4456L125.794 86.2063C125.67 85.9811 125.501 85.7828 125.299 85.6243C125.08 85.497 124.829 85.4365 124.576 85.4504C124.461 85.4443 124.347 85.4633 124.24 85.5061C124.134 85.549 124.037 85.6146 123.959 85.6985C123.797 85.8706 123.709 86.0997 123.714 86.3362C123.714 86.8532 124.199 87.4809 125.321 88.1956C126.009 88.6453 126.503 89.0262 126.757 89.3499C127.14 89.8463 127.338 90.4614 127.317 91.0881C127.318 91.886 127.002 92.6518 126.439 93.218C126.166 93.5136 125.833 93.748 125.463 93.9055C125.092 94.0629 124.693 94.1396 124.29 94.1311C123.899 94.1206 123.515 94.0203 123.168 93.8381C122.812 93.6631 122.489 93.4261 122.217 93.1379L122.154 93.0676L122.824 91.8225L122.92 92.1204C123.026 92.4224 123.225 92.6833 123.49 92.8635C123.739 93.0754 124.052 93.1959 124.379 93.2063C124.61 93.2083 124.838 93.16 125.049 93.0647C125.259 92.9694 125.447 92.8296 125.598 92.6545C125.904 92.3222 126.072 91.8856 126.067 91.4338C126.07 91.0014 125.921 90.5819 125.646 90.2473C125.329 89.9096 124.976 89.6069 124.594 89.345C123.256 88.3879 122.545 87.453 122.545 86.5422C122.547 86.4245 122.558 86.307 122.576 86.1907C122.677 85.6304 122.9 85.2099 123.227 84.9436C123.553 84.6774 124.053 84.5423 124.644 84.5422ZM77.6602 85.1301C77.7519 85.1527 77.846 85.1636 77.9404 85.1643C78.0386 85.1617 78.1366 85.1498 78.2324 85.1282L78.3408 85.1057L82.0918 94.0276L81.8105 93.9426C81.6078 93.8786 81.3963 93.846 81.1836 93.8459C81.0301 93.8395 80.8768 93.8694 80.7373 93.9338L80.6055 94.0022L77.8848 86.9866L75.1436 93.9827L75.0225 93.9407C74.8871 93.8946 74.7446 93.8706 74.6016 93.8704C74.4814 93.8683 74.3618 93.8913 74.251 93.9377L73.957 94.0598L77.5479 85.1028L77.6602 85.1301ZM100.354 85.1301C100.445 85.1528 100.539 85.1638 100.634 85.1643C100.732 85.1616 100.83 85.1497 100.926 85.1282L101.033 85.1057L104.783 94.0276L104.51 93.9426C104.307 93.8787 104.095 93.8461 103.883 93.8459C103.727 93.8384 103.572 93.8683 103.431 93.9338L103.298 94.0022L100.577 86.9866L97.8359 93.9827L97.7158 93.9407C97.5803 93.8946 97.4381 93.8707 97.2949 93.8704C97.1742 93.8684 97.0539 93.8915 96.9424 93.9377L96.6494 94.0598L100.241 85.1028L100.354 85.1301ZM71.0039 84.6536C71.7206 84.6536 72.2855 84.8399 72.6797 85.2209L72.7422 85.2825L72.2812 86.5159L72.1416 86.2786C72.0177 86.0609 71.8514 85.8701 71.6523 85.718C71.4357 85.5927 71.1865 85.5344 70.9365 85.5491C70.8234 85.5428 70.7098 85.5612 70.6045 85.6028C70.4994 85.6444 70.4043 85.7077 70.3262 85.7893C70.1672 85.9569 70.0806 86.1805 70.085 86.4114C70.085 86.9144 70.5634 87.5332 71.6758 88.2268C72.3545 88.6667 72.8456 89.0391 73.0967 89.3557C73.4772 89.8397 73.6761 90.4418 73.6582 91.0569C73.6581 91.4447 73.5808 91.8288 73.4316 92.1868C73.2824 92.5448 73.0636 92.8704 72.7881 93.1438C72.5175 93.4321 72.1894 93.6605 71.8252 93.8147C71.4609 93.9689 71.0684 94.0457 70.6729 94.0393C70.2824 94.0326 69.8985 93.9366 69.5508 93.759C69.1988 93.5867 68.8798 93.3531 68.6094 93.0696L68.5459 92.9973L69.2109 91.7756L69.3076 92.0706C69.4113 92.3661 69.6087 92.6197 69.8691 92.7942C70.1156 93.0019 70.4248 93.121 70.7471 93.1311C70.9751 93.1336 71.201 93.0864 71.4092 92.9934C71.6174 92.9003 71.803 92.7627 71.9531 92.5911C72.2549 92.2682 72.4217 91.8423 72.418 91.4006C72.4188 90.9769 72.2697 90.5661 71.9971 90.2415C71.6819 89.9111 71.3317 89.6151 70.9531 89.3596C69.6291 88.4251 68.9258 87.5101 68.9258 86.6106C68.9273 86.4958 68.938 86.3812 68.9561 86.2678C69.057 85.7075 69.2767 85.3034 69.6006 85.0442C69.9246 84.785 70.4189 84.6536 71.0039 84.6536ZM97.1768 85.3079C97.1446 85.3908 97.1292 85.4797 97.1309 85.5686C97.1302 85.664 97.1465 85.7591 97.1787 85.8489L97.2432 86.0276H94.7295L94.7334 92.8313V92.8958C94.7334 93.2108 94.8219 93.2415 94.8906 93.2415C94.8942 93.2411 95.0081 93.2293 95.2441 93.1907L95.3994 93.1663V93.6858L95.3145 93.719C95.0563 93.8237 94.7806 93.8794 94.502 93.8831C94.2497 93.8937 94.0033 93.8071 93.8135 93.6409C93.724 93.5597 93.6528 93.4605 93.6045 93.3499C93.5562 93.2393 93.531 93.1199 93.5322 92.9993V86.0276H91.0723L91.1367 85.8489C91.169 85.7591 91.1853 85.664 91.1846 85.5686C91.1862 85.4796 91.1699 85.3909 91.1377 85.3079L91.0635 85.1243H97.25L97.1768 85.3079ZM115.939 91.0706H119.127L117.54 86.9192L115.939 91.0706ZM129.851 91.0706H133.038L131.451 86.9192L129.851 91.0706ZM65.1396 60.5266C65.2429 60.5294 65.342 60.5708 65.415 60.6438C65.488 60.7167 65.5303 60.8152 65.5332 60.9182V80.7649C65.5332 82.0987 65.4672 83.1482 65.3213 83.9006C65.1976 84.6081 64.925 85.2812 64.5225 85.8762C64.1238 86.4446 63.6339 86.9433 63.0723 87.3518C62.4986 87.7703 61.869 88.1065 61.2021 88.3508C61.1256 88.3652 61.047 88.3626 60.9717 88.343C60.8963 88.3234 60.8264 88.2874 60.7666 88.2375L59.5293 86.7815C59.4874 86.7382 59.4556 86.6859 59.4385 86.6282C59.4213 86.5704 59.4191 86.5086 59.4307 86.4495C59.4422 86.3906 59.4675 86.3353 59.5049 86.2883C59.5425 86.2412 59.5913 86.2033 59.6465 86.179C60.0892 85.9503 60.4982 85.6616 60.8613 85.3206C61.1806 85.0315 61.4508 84.6919 61.6602 84.3157C61.8279 83.9601 61.9345 83.5787 61.9756 83.1877C62.0602 82.4473 62.0956 81.7014 62.082 80.9563V60.9182C62.0849 60.8152 62.1272 60.7167 62.2002 60.6438C62.2732 60.571 62.3715 60.5295 62.4746 60.5266H65.1396ZM128.976 60.5569C130.049 60.556 131.118 60.7134 132.146 61.0237C133.165 61.3322 134.13 61.8011 135.002 62.4133C135.08 62.4749 135.134 62.5622 135.153 62.6594C135.173 62.7565 135.158 62.8576 135.11 62.9446L133.932 64.8098C133.874 64.8946 133.786 64.9549 133.687 64.9778C133.587 65.0006 133.481 64.9842 133.393 64.9329C132.689 64.4817 131.936 64.1117 131.148 63.8293C130.487 63.6092 129.792 63.5004 129.095 63.509C128.085 63.5174 127.347 63.7604 126.832 64.1877C126.317 64.6151 126.059 65.1881 126.049 65.9768C126.035 66.2261 126.074 66.4763 126.164 66.7092C126.254 66.942 126.393 67.1534 126.571 67.3284C126.939 67.6884 127.587 68.0287 128.57 68.3088L130.795 68.967C132.085 69.3065 133.264 69.9748 134.219 70.9055C135.178 71.8542 135.66 73.1239 135.696 74.6653C135.689 75.6837 135.414 76.6827 134.899 77.5618C134.357 78.5285 133.52 79.3243 132.415 79.9534C131.293 80.5979 129.857 80.9188 128.16 80.9426C125.936 80.9619 123.75 80.3628 121.848 79.2122C121.767 79.1567 121.708 79.0741 121.681 78.9797C121.654 78.8854 121.66 78.7843 121.7 78.6946L122.744 76.6643C122.769 76.6152 122.803 76.5722 122.846 76.5374C122.888 76.5025 122.937 76.4767 122.99 76.4622C123.043 76.4476 123.099 76.444 123.153 76.4524C123.208 76.4608 123.26 76.4803 123.306 76.51C124.048 76.9802 124.846 77.3568 125.682 77.6311C126.498 77.8891 127.351 78.0184 128.207 78.0139C129.402 78.0041 130.297 77.7239 130.938 77.2141C131.579 76.7041 131.895 76.0294 131.91 75.1116C131.921 73.8297 131.084 72.863 129.062 72.2815L127.085 71.7053C125.605 71.299 124.435 70.6921 123.602 69.8625C122.742 69.0078 122.326 67.8479 122.317 66.4397C122.347 64.6839 122.963 63.2456 124.184 62.175C125.404 61.1046 127.01 60.5835 128.976 60.5569ZM76.5283 60.5588C78.4443 60.5855 80.035 61.0685 81.2666 62.0422C82.4898 63.0242 83.4038 64.3378 83.8984 65.8254C84.4532 67.4486 84.7239 69.1554 84.6982 70.8704C84.6954 72.8404 84.3848 74.5848 83.7578 76.0813C83.1294 77.5806 82.2152 78.7612 81.0117 79.6047C79.8082 80.4482 78.3462 80.8743 76.6631 80.887C74.8605 80.8701 73.3237 80.4238 72.0879 79.5256C70.8523 78.6275 69.9558 77.4158 69.3555 75.8831C68.7551 74.3501 68.4648 72.6135 68.4648 70.6643C68.4957 67.4835 69.2044 64.9823 70.6465 63.2209C72.0885 61.4597 74.0721 60.5714 76.5283 60.5588ZM112.003 60.5559C113.918 60.5825 115.511 61.0654 116.742 62.0393C117.965 63.0212 118.878 64.335 119.373 65.8225C119.927 67.4458 120.198 69.1526 120.173 70.8674C120.167 72.8402 119.857 74.5848 119.23 76.0813C118.602 77.5806 117.687 78.7612 116.482 79.6047C115.277 80.4483 113.817 80.8743 112.134 80.887C110.33 80.8701 108.793 80.4238 107.559 79.5256C106.324 78.6275 105.427 77.4212 104.829 75.8801C104.232 74.3387 103.939 72.6105 103.939 70.6614C103.969 67.4806 104.678 64.9794 106.121 63.218C107.565 61.4567 109.545 60.5686 112.003 60.5559ZM95.1963 60.5608C97.3566 60.5482 99.2337 61.2104 100.808 62.55C100.879 62.6185 100.924 62.7097 100.935 62.8079C100.945 62.9063 100.921 63.006 100.865 63.0881L99.6025 64.7346C99.5378 64.8126 99.4461 64.8637 99.3457 64.8782C99.2452 64.8927 99.1428 64.8693 99.0586 64.8127C98.4771 64.3726 97.8339 64.0197 97.1504 63.7649C96.5364 63.552 95.8902 63.4463 95.2402 63.4534C94.4719 63.43 93.7105 63.6079 93.0322 63.969C92.4234 64.3095 91.9198 64.8576 91.5312 65.6506C91.1447 66.4186 90.8698 67.2377 90.7148 68.0833C90.5686 69.01 90.5052 69.9481 90.5264 70.886C90.5362 73.4907 90.984 75.2882 91.7891 76.3616C92.2053 76.8652 92.7459 77.2516 93.3574 77.4827C94.0525 77.7619 94.7948 77.9052 95.5439 77.9036C96.3676 77.9084 97.1812 77.7187 97.918 77.3508V71.1155C97.918 70.8465 98.0344 70.7229 98.3037 70.7229H100.956C101.061 70.7232 101.162 70.7649 101.237 70.8381C101.312 70.9113 101.355 71.0108 101.358 71.1155V78.8762C101.33 79.0029 101.265 79.1186 101.172 79.2092C100.321 79.7259 99.3994 80.1148 98.4355 80.3635C97.4319 80.637 96.3967 80.7788 95.3564 80.7844C92.7248 80.7844 90.6123 79.8956 89.0664 78.095C88.2701 77.1684 87.6757 76.0863 87.3223 74.9172C86.9482 73.7169 86.765 72.3291 86.7725 70.7542C86.7725 68.8316 87.0535 67.1638 87.623 65.7639C88.1664 64.4008 89.0484 63.1983 90.1865 62.2708C91.5991 61.1049 93.2731 60.537 95.1963 60.5608ZM76.5293 63.3977C74.9863 63.3977 73.92 63.9679 73.2607 65.0637C72.5734 66.2086 72.2106 67.9601 72.2246 70.3645C72.1952 72.7845 72.5327 74.678 73.2061 76.0667C73.8472 77.3795 74.9713 78.0633 76.6699 78.0969C78.0235 78.1165 79.0321 77.603 79.7559 76.5549C80.4795 75.5068 80.8781 73.6967 80.8936 71.1047C80.916 68.5462 80.5711 66.6316 79.8965 65.3088C79.2554 64.0575 78.1636 63.4145 76.5293 63.3977ZM112.002 63.3977C110.452 63.3977 109.393 63.9679 108.733 65.0637C108.046 66.2086 107.682 67.96 107.696 70.3645C107.665 72.7845 108.005 74.678 108.679 76.0667C109.321 77.3793 110.443 78.0632 112.142 78.0969C113.497 78.1165 114.506 77.6031 115.229 76.5549C115.951 75.5068 116.351 73.6965 116.366 71.1047C116.387 68.546 116.043 66.6316 115.368 65.3088C114.727 64.0576 113.636 63.4146 112.002 63.3977ZM26.9785 53.1272C31.2093 51.0968 35.8893 55.0056 37.2949 58.5774C38.8602 62.5554 38.1138 66.4969 37.3438 70.0881C34.8118 69.6145 31.8856 69.4383 29.3115 69.4299C25.9239 69.4538 22.4674 70.0615 19.0713 70.1204C9.29943 70.2941 10.9926 61.7534 12.3379 59.7776C15.4185 55.2224 21.7603 56.1221 25.4678 58.3557C24.6724 56.8381 24.9894 54.0815 26.9785 53.1272Z" fill="#3B3B3B"/>
</g>
</svg>
