<svg width="145" height="145" viewBox="0 0 145 145" fill="none" xmlns="http://www.w3.org/2000/svg">
<g clip-path="url(#clip0_819_159)">
<path d="M128.666 99.1956C126.499 98.4653 118.44 95.6302 108.655 95.6302C98.3263 95.6302 89.3649 98.5168 80.4687 102.089C71.6718 105.62 62.5733 108.753 51.5756 108.753C38.8329 108.753 29.2682 103.861 22.2815 100.529C20.0085 99.4458 18.0716 98.4276 16.3335 97.6974V96.1204C18.3493 96.8918 20.5948 98.0162 23.2516 99.2847C30.0395 102.521 39.3403 106.957 51.5722 106.957C62.1345 106.957 71.0273 103.388 79.6253 99.9361C88.3296 96.4427 97.3286 92.8293 108.093 92.8293C117.449 92.8293 125.577 95.1263 128.663 96.1239V99.199L128.666 99.1956ZM41.3869 52.0061C45.7373 52.0061 49.265 48.4785 49.265 44.1281C49.265 39.7776 45.7373 36.25 41.3869 36.25C37.0365 36.25 33.5089 39.7776 33.5089 44.1281C33.5089 48.4785 37.0365 52.0061 41.3869 52.0061Z" fill="#3B3B3B"/>
<path d="M39.1415 86.6688H43.6256V55.1566H39.1415V86.6688ZM34.3145 86.6688V55.1566H29.9367C29.9367 55.1566 26.8958 74.5809 25.3257 74.5809C23.903 74.5809 20.7148 55.1566 20.7148 55.1566H16.3335V86.6688H20.8245V72.7571C20.8245 72.7571 21.8529 80.3883 25.3223 80.3883C28.7917 80.3883 29.8201 72.7571 29.8201 72.7571V86.6688H34.3145ZM79.3339 54.9681C74.3836 54.9681 70.3554 58.9962 70.3554 63.9466V77.8035C70.3554 82.7538 74.3836 86.8574 79.3339 86.8574C84.2843 86.8574 88.3124 82.7538 88.3124 77.8035V63.9466C88.3124 58.9962 84.2843 54.9681 79.3339 54.9681ZM83.8283 77.8069C83.8283 80.2855 81.8125 82.3013 79.3339 82.3013C76.8553 82.3013 74.8395 80.2855 74.8395 77.8069V63.95C74.8395 61.4714 76.8553 59.4556 79.3339 59.4556C81.8125 59.4556 83.8283 61.4714 83.8283 63.95V77.8069ZM121.933 55.1601H117.346L110.616 86.6723H115.207L116.657 79.8604H122.615L124.072 86.6723H128.663L121.933 55.1601ZM117.617 75.3729L119.64 65.9041L121.659 75.3729H117.617ZM100.603 82.3767C98.124 82.3767 96.1082 80.3609 96.1082 77.8823H91.6241C91.6241 82.8327 95.6522 86.8608 100.603 86.8608C105.553 86.8608 109.581 82.8327 109.581 77.8823C109.581 72.5789 105.769 70.1551 100.603 68.4444C98.1171 67.6216 96.1082 66.4286 96.1082 63.95C96.1082 61.4714 98.124 59.4556 100.603 59.4556C103.081 59.4556 105.097 61.4714 105.097 63.95H109.581C109.581 58.9997 105.553 54.9715 100.603 54.9715C95.6522 54.9715 91.6309 58.9997 91.6241 63.9534C91.6172 69.2466 95.4431 71.2796 100.603 73.0451C103.078 73.8919 105.097 75.4071 105.097 77.8857C105.097 80.3643 103.081 82.3801 100.603 82.3801V82.3767ZM61.9425 86.6723H66.4335V55.1566H62.0557C62.0557 55.1566 59.0148 74.5809 57.4447 74.5809C56.0186 74.5809 52.8338 55.1566 52.8338 55.1566H48.4559V86.6688H52.9469V72.7571C52.9469 72.7571 53.9754 80.3883 57.4447 80.3883C60.9141 80.3883 61.9425 72.7571 61.9425 72.7571V86.6723Z" fill="#3B3B3B"/>
</g>
<defs>
<clipPath id="clip0_819_159">
<rect width="112.333" height="72.5" fill="white" transform="translate(16.3335 36.25)"/>
</clipPath>
</defs>
</svg>
