<svg width="145" height="145" viewBox="0 0 145 145" fill="none" xmlns="http://www.w3.org/2000/svg">
<g clip-path="url(#clip0_818_5811)">
<path fill-rule="evenodd" clip-rule="evenodd" d="M76.52 54.9399C76.2208 54.9399 75.9215 54.9399 75.6223 54.9556L75.2601 41.9285H77.8273L77.4493 54.9556C77.2918 54.9556 77.1383 54.9517 76.9847 54.9477C76.8311 54.9439 76.6776 54.9399 76.52 54.9399ZM76.071 91.052C76.2205 91.056 76.3704 91.0599 76.5199 91.0599C76.8349 91.0599 77.1341 91.0599 77.4334 91.0441L77.8113 104.071H75.2441L75.6221 91.0441C75.7717 91.0441 75.9214 91.048 76.071 91.052ZM58.4782 72.5436C58.4821 72.39 58.4861 72.236 58.4861 72.0784L45.4606 71.7003V74.268L58.4861 73.8899C58.4861 73.751 58.4822 73.6083 58.4784 73.4636V73.4623V73.4611V73.4598V73.4585V73.4572V73.456C58.4744 73.308 58.4703 73.1578 58.4703 73.0077C58.4703 72.8504 58.4743 72.6971 58.4782 72.5436ZM94.5935 73.4567C94.5975 73.3071 94.6014 73.1574 94.6014 73.0078C94.6014 72.7085 94.6014 72.3934 94.5857 72.0942L107.611 71.7161V74.2837L94.5857 73.9056C94.5857 73.756 94.5897 73.6063 94.5935 73.4567ZM73.3859 55.2078C73.5355 55.1841 73.6891 55.1605 73.8427 55.1368C73.9963 55.1133 74.1499 55.0896 74.2994 55.066L72.4094 42.1806L69.8736 42.6217L72.5039 55.381L72.6367 55.3529C72.8879 55.2996 73.1312 55.248 73.3859 55.2078ZM78.7726 90.9182C79.0561 90.8867 79.3554 90.8395 79.6545 90.7922C79.9695 90.745 80.2689 90.6819 80.568 90.6031L83.1983 103.363L80.6625 103.804L78.7726 90.9182ZM58.6832 75.6856C58.6596 75.5323 58.6359 75.3785 58.6124 75.2289L45.7288 77.1192L46.1697 79.6554L58.9274 77.0247C58.8644 76.7411 58.8014 76.4418 58.7541 76.1426C58.7306 75.9929 58.7069 75.8392 58.6832 75.6856ZM94.3336 69.8737C94.3126 69.774 94.2933 69.6736 94.274 69.5738C94.2356 69.3744 94.197 69.1746 94.1445 68.9751L106.902 66.3446L107.343 68.8649L94.4595 70.7553C94.428 70.4719 94.3809 70.1727 94.3336 69.8737ZM70.3459 56.0269C70.6294 55.9166 70.9287 55.8221 71.2279 55.7276L67.1171 43.362L64.7073 44.2441L69.5112 56.3576C69.7788 56.2316 70.0624 56.1214 70.3459 56.0269ZM81.859 90.2564C82.1426 90.1776 82.4261 90.0832 82.7096 89.973C82.993 89.8785 83.2766 89.7681 83.5758 89.6264L88.3797 101.74L85.9699 102.622L81.859 90.2564ZM59.5734 79.1827C59.463 78.8992 59.3685 78.5999 59.2741 78.3006L46.9102 82.3962L47.7922 84.8062L59.9041 80.0018C59.7781 79.7497 59.6679 79.4663 59.5734 79.1827ZM93.7981 67.6836C93.7193 67.4 93.6248 67.1165 93.5146 66.8329C93.4201 66.5336 93.2941 66.2501 93.1681 65.9665L105.28 61.1621L106.162 63.5722L93.7981 67.6836ZM67.4954 57.3658C67.7632 57.2083 68.031 57.0665 68.3144 56.9248L62.1246 45.4571L59.8881 46.733L66.7237 57.8226C66.9757 57.6651 67.2277 57.5076 67.4954 57.3658ZM84.7733 89.0752C85.041 88.9491 85.293 88.8074 85.5607 88.6498C85.8285 88.4923 86.0963 88.3348 86.3483 88.1615L93.1839 99.2669L90.9631 100.543L84.7733 89.0752ZM60.8962 82.0496C60.7388 81.7818 60.5971 81.514 60.4553 81.2305L48.9892 87.4212L50.265 89.6422L61.353 82.8057C61.2113 82.5537 61.0538 82.3016 60.8962 82.0496ZM92.6169 64.7694C92.4909 64.5017 92.3492 64.2496 92.1916 63.9818C92.0342 63.7139 91.8766 63.4462 91.7034 63.1941L102.791 56.3576L104.083 58.5788L92.6169 64.7694ZM64.9123 59.1615C65.1485 58.9567 65.3848 58.7677 65.6368 58.5786L57.557 48.3554L55.5882 50.0094L64.2508 59.7443C64.3492 59.6536 64.4548 59.5627 64.5625 59.4702C64.6789 59.3701 64.7977 59.2679 64.9123 59.1615ZM87.4346 87.4212L88.1433 86.8541C88.3795 86.6493 88.6159 86.4445 88.8363 86.2555L97.499 95.9905L95.5302 97.6444L87.4346 87.4212ZM62.7072 84.6173C62.5025 84.381 62.3134 84.1447 62.1244 83.8927L51.9026 91.9736L53.5563 93.9427L63.29 85.2789L63.2682 85.2554C63.0854 85.0573 62.889 84.8445 62.7072 84.6173ZM90.3799 61.3985C90.1908 61.1622 89.9861 60.9258 89.7656 60.7053L99.4992 52.0415L101.153 54.0105L90.9312 62.1072C90.7585 61.8717 90.5701 61.6362 90.3818 61.4008L90.3809 61.3997L90.3799 61.3985ZM62.6916 61.3984C62.8964 61.1622 63.1011 60.9258 63.3059 60.7053L53.5723 52.0415L51.9186 54.0105L62.1403 62.0915C62.3136 61.8553 62.5026 61.6189 62.6916 61.3984ZM89.7657 85.2943C89.9704 85.0738 90.1751 84.8534 90.3641 84.6171C90.5689 84.3808 90.7579 84.1446 90.9312 83.9083L101.153 91.9892L99.4992 93.9583L89.7657 85.2943ZM64.9438 86.854C64.7076 86.6493 64.4713 86.4445 64.2508 86.2397L55.5882 95.9746L57.557 97.6286L65.6368 87.4054C65.4006 87.2321 65.1643 87.0431 64.9438 86.854ZM88.8365 59.7602C88.616 59.5553 88.3955 59.3505 88.1593 59.1615L87.4506 58.5945L95.5303 48.3712L97.4992 50.0252L88.8365 59.7602ZM60.8956 63.9818C61.0531 63.7142 61.2108 63.4462 61.3839 63.1941L50.2801 56.3576L49.0043 58.5788L60.4704 64.7694C60.5965 64.5017 60.7382 64.2338 60.8956 63.9818ZM92.0957 82.1866L92.1759 82.0497C92.3332 81.7821 92.4748 81.499 92.6007 81.2472L104.067 87.4369L102.791 89.6579L91.7034 82.8214C91.8469 82.6129 91.9687 82.4042 92.0957 82.1866ZM67.5271 88.6498C67.2593 88.4923 66.9916 88.3348 66.7396 88.1615L59.9041 99.2669L62.1249 100.559L68.3147 89.0909C68.0469 88.9491 67.7792 88.8074 67.5271 88.6498ZM85.9781 57.5864C85.8482 57.5076 85.7182 57.4288 85.5923 57.35C85.4584 57.2792 85.3207 57.2043 85.1828 57.1295C85.0449 57.0547 84.9072 56.9799 84.7733 56.909L90.9788 45.4571L93.1996 46.733L86.364 57.8226C86.2381 57.7439 86.108 57.665 85.9781 57.5864ZM59.5574 66.8329C59.6125 66.6912 59.6676 66.5454 59.7227 66.3997C59.7779 66.254 59.833 66.1083 59.8881 65.9665L47.7763 61.1621L46.8942 63.5722L59.2581 67.6836C59.3684 67.4 59.4629 67.1165 59.5574 66.8329ZM93.184 80.0176C93.2942 79.7499 93.4045 79.4663 93.5147 79.1827C93.6031 78.9555 93.6814 78.7182 93.7576 78.487C93.7765 78.4296 93.7952 78.3727 93.814 78.3163L106.178 82.4119L105.296 84.8221L93.184 80.0176ZM70.3774 89.973C70.0781 89.8626 69.7947 89.7524 69.5112 89.6421L64.7073 101.756L67.1171 102.638L71.2279 90.2723C70.9445 90.1778 70.6608 90.0832 70.3774 89.973ZM83.5761 56.3576C83.3083 56.2474 83.0248 56.1371 82.7413 56.0269C82.5625 55.961 82.3838 55.9007 82.2117 55.8427C82.096 55.8037 81.9828 55.7655 81.8751 55.7276L85.9701 43.362L88.3799 44.2441L83.5761 56.3576ZM58.7544 69.8731C58.8016 69.5738 58.8646 69.2587 58.9433 68.9751L46.1858 66.3446L45.7447 68.8649L58.6283 70.7553L58.6333 70.7104C58.6632 70.4402 58.6947 70.1567 58.7544 69.8731ZM94.1605 77.0247C94.2234 76.7412 94.2865 76.4419 94.3337 76.1426L94.4755 75.2447L107.359 77.135L106.918 79.6554L94.1605 77.0247ZM72.5198 90.6031L69.8895 103.363L72.4253 103.804L74.3154 90.9182C74.0161 90.8867 73.7168 90.8394 73.4333 90.7764C73.1183 90.745 72.8191 90.6819 72.5198 90.6031ZM83.1986 42.6217L80.5683 55.381C80.2848 55.3181 79.9855 55.255 79.702 55.2235C79.4027 55.1605 79.0877 55.1133 78.7885 55.0817L80.6785 42.1806L83.1986 42.6217ZM34.3727 69.495C34.3727 72.1886 34.4043 74.8823 34.4515 77.5444L34.3727 77.5759C32.6402 75.1501 30.9391 72.803 29.128 70.3772L20.7646 59.13H15V87.0116H20.8906V76.6465C20.8906 73.9529 20.8591 71.2593 20.8118 68.5972L20.8906 68.5656C22.6231 70.9915 24.3241 73.3386 26.1354 75.7644L34.4988 87.0116H40.2791V59.13H34.3727V69.495ZM121.615 69.9036C122.178 70.0692 122.779 70.2462 123.409 70.456C127.614 71.8422 131 73.8111 131 78.7416C131 84.1762 126.874 87.4526 120.873 87.4526C118.101 87.4526 114.746 86.7595 112.21 85.4836V79.3245C115.218 81.2463 118.762 82.0969 120.952 82.0969C123.188 82.0969 124.842 81.2147 124.842 79.1354C124.842 76.9917 123.03 76.4642 120.371 75.6896C119.826 75.5307 119.245 75.3615 118.636 75.1658C114.777 73.8899 111.312 71.9996 111.312 67.1479C111.312 61.9339 115.234 58.7047 121.093 58.7047C123.818 58.7047 127.173 59.3978 129.598 60.7052V66.7541C126.637 64.9112 123.204 64.0605 121.046 64.0605C118.967 64.0605 117.471 64.8324 117.471 66.6753C117.471 68.6848 119.176 69.1864 121.615 69.9036Z" fill="#3B3B3B"/>
</g>
<defs>
<clipPath id="clip0_818_5811">
<rect width="116" height="62.8333" fill="white" transform="translate(15 41.5833)"/>
</clipPath>
</defs>
</svg>
